<?xml version="1.0" encoding="UTF-8" standalone="no"?>
<svg
   xmlns:dc="http://purl.org/dc/elements/1.1/"
   xmlns:cc="http://creativecommons.org/ns#"
   xmlns:rdf="http://www.w3.org/1999/02/22-rdf-syntax-ns#"
   xmlns:svg="http://www.w3.org/2000/svg"
   xmlns="http://www.w3.org/2000/svg"
   xmlns:xlink="http://www.w3.org/1999/xlink"
   xmlns:sodipodi="http://sodipodi.sourceforge.net/DTD/sodipodi-0.dtd"
   xmlns:inkscape="http://www.inkscape.org/namespaces/inkscape"
   width="87.5mm"
   height="200mm"
   viewBox="0 0 87.5 200"
   version="1.1"
   id="svg968"
   sodipodi:docname="koncept_menu_categories.svg"
   inkscape:version="1.0.1 (3bc2e813f5, 2020-09-07)">
  <defs
     id="defs962">
    <linearGradient
       inkscape:collect="always"
       id="linearGradient940">
      <stop
         style="stop-color:#aa0000;stop-opacity:1;"
         offset="0"
         id="stop936" />
      <stop
         style="stop-color:#ff0035;stop-opacity:1"
         offset="1"
         id="stop938" />
    </linearGradient>
    <linearGradient
       inkscape:collect="always"
       id="linearGradient1868">
      <stop
         style="stop-color:#ff4d24;stop-opacity:1"
         offset="0"
         id="stop1864" />
      <stop
         style="stop-color:#ffa600;stop-opacity:1"
         offset="1"
         id="stop1866" />
    </linearGradient>
    <linearGradient
       inkscape:collect="always"
       id="linearGradient1848">
      <stop
         style="stop-color:#225500;stop-opacity:1;"
         offset="0"
         id="stop1844" />
      <stop
         style="stop-color:#22c200;stop-opacity:1"
         offset="1"
         id="stop1846" />
    </linearGradient>
    <linearGradient
       inkscape:collect="always"
       id="linearGradient1682">
      <stop
         style="stop-color:#1a1a1a;stop-opacity:1;"
         offset="0"
         id="stop1678" />
      <stop
         style="stop-color:#505050;stop-opacity:1"
         offset="1"
         id="stop1680" />
    </linearGradient>
    <linearGradient
       inkscape:collect="always"
       xlink:href="#linearGradient1682"
       id="linearGradient1684"
       x1="138.98016"
       y1="42.342648"
       x2="138.98016"
       y2="25.371946"
       gradientUnits="userSpaceOnUse"
       gradientTransform="translate(-59.14877,-19.948698)" />
    <filter
       inkscape:collect="always"
       style="color-interpolation-filters:sRGB"
       id="filter1765"
       x="-0.00030068916"
       width="1.0006014"
       y="-0.0011890988"
       height="1.0023782">
      <feGaussianBlur
         inkscape:collect="always"
         stdDeviation="0.0092377144"
         id="feGaussianBlur1767" />
    </filter>
    <linearGradient
       inkscape:collect="always"
       xlink:href="#linearGradient1848"
       id="linearGradient1850"
       x1="80.203644"
       y1="41.311844"
       x2="80.203644"
       y2="24.255621"
       gradientUnits="userSpaceOnUse"
       gradientTransform="translate(-0.37225196)" />
    <linearGradient
       inkscape:collect="always"
       xlink:href="#linearGradient1848"
       id="linearGradient1854"
       gradientUnits="userSpaceOnUse"
       x1="80.203644"
       y1="41.311844"
       x2="80.203644"
       y2="24.255621"
       gradientTransform="translate(-0.37225193,18.689149)" />
    <linearGradient
       inkscape:collect="always"
       xlink:href="#linearGradient1848"
       id="linearGradient1858"
       gradientUnits="userSpaceOnUse"
       gradientTransform="translate(-0.37225188,37.378298)"
       x1="80.203644"
       y1="41.311844"
       x2="80.203644"
       y2="24.255621" />
    <linearGradient
       inkscape:collect="always"
       xlink:href="#linearGradient1868"
       id="linearGradient1870"
       x1="79.253494"
       y1="96.397034"
       x2="79.307648"
       y2="74.732964"
       gradientUnits="userSpaceOnUse"
       gradientTransform="translate(0.57789499,0.83659676)" />
    <linearGradient
       inkscape:collect="always"
       xlink:href="#linearGradient1868"
       id="linearGradient1874"
       gradientUnits="userSpaceOnUse"
       gradientTransform="translate(0.57789504,19.481403)"
       x1="79.253494"
       y1="96.397034"
       x2="79.307648"
       y2="74.732964" />
    <linearGradient
       inkscape:collect="always"
       xlink:href="#linearGradient1868"
       id="linearGradient1882"
       gradientUnits="userSpaceOnUse"
       gradientTransform="translate(0.57789509,38.170553)"
       x1="79.253494"
       y1="96.397034"
       x2="79.307648"
       y2="74.732964" />
    <linearGradient
       inkscape:collect="always"
       xlink:href="#linearGradient940"
       id="linearGradient942"
       x1="8.040863"
       y1="152.82054"
       x2="8.040863"
       y2="136.18958"
       gradientUnits="userSpaceOnUse"
       gradientTransform="translate(-0.37225226)" />
    <linearGradient
       inkscape:collect="always"
       xlink:href="#linearGradient940"
       id="linearGradient946"
       gradientUnits="userSpaceOnUse"
       x1="8.040863"
       y1="152.82054"
       x2="8.040863"
       y2="136.18958"
       gradientTransform="translate(-0.37225226,18.68915)" />
    <linearGradient
       inkscape:collect="always"
       xlink:href="#linearGradient940"
       id="linearGradient950"
       gradientUnits="userSpaceOnUse"
       gradientTransform="translate(-0.37225226,37.33452)"
       x1="8.040863"
       y1="152.82054"
       x2="8.040863"
       y2="136.18958" />
  </defs>
  <sodipodi:namedview
     id="base"
     pagecolor="#ffffff"
     bordercolor="#666666"
     borderopacity="1.0"
     inkscape:pageopacity="0.0"
     inkscape:pageshadow="2"
     inkscape:zoom="0.70000001"
     inkscape:cx="245.5613"
     inkscape:cy="507.01638"
     inkscape:document-units="mm"
     inkscape:current-layer="layer1"
     inkscape:document-rotation="0"
     showgrid="false"
     inkscape:snap-global="true"
     showguides="true"
     inkscape:guide-bbox="true"
     inkscape:window-width="1920"
     inkscape:window-height="1017"
     inkscape:window-x="1912"
     inkscape:window-y="-8"
     inkscape:window-maximized="1" />
  <metadata
     id="metadata965">
    <rdf:RDF>
      <cc:Work
         rdf:about="">
        <dc:format>image/svg+xml</dc:format>
        <dc:type
           rdf:resource="http://purl.org/dc/dcmitype/StillImage" />
        <dc:title></dc:title>
      </cc:Work>
    </rdf:RDF>
  </metadata>
  <g
     inkscape:label="Warstwa 1"
     inkscape:groupmode="layer"
     id="layer1">
    <path
       id="rect1730"
       style="fill:#000000;fill-opacity:0.83871;stroke-width:1.24479;stroke-linecap:square;filter:url(#filter1765)"
       d="M 6.8838287,4.5919556 H 80.616169 V 23.236759 H 6.8838287 Z"
       sodipodi:nodetypes="ccccc" />
    <path
       id="rect1676"
       style="mix-blend-mode:normal;fill:url(#linearGradient1684);fill-opacity:1;stroke-width:1.134;stroke-linecap:square"
       d="m 7.833976,5.4419088 h 71.832043 c 0.0916,0 0.16537,0.073753 0.16537,0.1653645 V 22.248159 c 0,0.09161 -0.0738,0.165364 -0.16537,0.165364 H 7.833976 c -0.09161,0 -0.165365,-0.07375 -0.165365,-0.165364 V 5.6072733 c 0,-0.091612 0.07375,-0.1653645 0.165365,-0.1653645 z" />
    <text
       xml:space="preserve"
       style="font-size:7.05556px;line-height:1.25;font-family:'Cambria Math';-inkscape-font-specification:'Cambria Math';stroke-width:0.264583"
       x="17.221025"
       y="15.641652"
       id="text1589"><tspan
         sodipodi:role="line"
         id="tspan1587"
         x="17.221025"
         y="15.641652"
         style="font-size:7.05556px;fill:#ffffff;fill-opacity:1;stroke-width:0.264583">Lista algorytmów</tspan></text>
    <path
       id="path1771"
       style="opacity:1;fill:#000000;fill-opacity:0.83871;stroke-width:1.24479;stroke-linecap:square;filter:url(#filter1765)"
       d="M 6.8838287,23.281101 H 80.616169 V 41.925908 H 6.8838287 Z"
       sodipodi:nodetypes="ccccc" />
    <path
       id="path1773"
       style="opacity:1;fill:#000000;fill-opacity:0.83871;stroke-width:1.24479;stroke-linecap:square;filter:url(#filter1765)"
       d="M 6.8838287,41.97025 H 80.616169 V 60.615057 H 6.8838287 Z"
       sodipodi:nodetypes="ccccc" />
    <path
       id="path1775"
       style="opacity:1;fill:#000000;fill-opacity:0.83871;stroke-width:1.24479;stroke-linecap:square;filter:url(#filter1765)"
       d="M 6.8838287,60.659399 H 80.616169 V 79.304206 H 6.8838287 Z"
       sodipodi:nodetypes="ccccc" />
    <path
       id="path1777"
       style="opacity:1;fill:#000000;fill-opacity:0.83871;stroke-width:1.24479;stroke-linecap:square;filter:url(#filter1765)"
       d="M 6.8838287,79.348548 H 80.616169 V 97.993355 H 6.8838287 Z"
       sodipodi:nodetypes="ccccc" />
    <path
       id="path1787"
       style="fill:#000000;fill-opacity:0.83871;stroke-width:1.24479;stroke-linecap:square;filter:url(#filter1765)"
       d="M 6.8838287,97.993355 H 80.616169 V 116.63816 H 6.8838287 Z"
       sodipodi:nodetypes="ccccc" />
    <path
       id="path1789"
       style="fill:#000000;fill-opacity:0.83871;stroke-width:1.24479;stroke-linecap:square;filter:url(#filter1765)"
       d="M 6.8838287,116.6825 H 80.616169 v 18.64481 H 6.8838287 Z"
       sodipodi:nodetypes="ccccc" />
    <path
       id="path1791"
       style="fill:#000000;fill-opacity:0.83871;stroke-width:1.24479;stroke-linecap:square;filter:url(#filter1765)"
       d="M 6.8838287,135.37165 H 80.616169 v 18.64481 H 6.8838287 Z"
       sodipodi:nodetypes="ccccc" />
    <path
       id="path1793"
       style="opacity:0.997;fill:#000000;fill-opacity:0.83871;stroke-width:1.24479;stroke-linecap:square;filter:url(#filter1765)"
       d="M 6.8838287,154.0608 H 80.616169 v 18.64481 H 6.8838287 Z"
       sodipodi:nodetypes="ccccc" />
    <path
       id="path1840"
       style="mix-blend-mode:normal;fill:url(#linearGradient1850);fill-opacity:1;stroke-width:1.134;stroke-linecap:square"
       d="M 7.8339759,24.117698 H 79.666019 c 0.0916,0 0.16537,0.07375 0.16537,0.165364 v 16.640886 c 0,0.09161 -0.0738,0.165364 -0.16537,0.165364 H 7.8339759 c -0.09161,0 -0.165365,-0.07375 -0.165365,-0.165364 V 24.283062 c 0,-0.09161 0.07375,-0.165364 0.165365,-0.165364 z" />
    <path
       id="path1852"
       style="mix-blend-mode:normal;fill:url(#linearGradient1854);fill-opacity:1;stroke-width:1.134;stroke-linecap:square"
       d="m 7.833976,42.806847 h 71.832043 c 0.0916,0 0.16537,0.07375 0.16537,0.165364 v 16.640886 c 0,0.09161 -0.0738,0.165364 -0.16537,0.165364 H 7.833976 c -0.09161,0 -0.165365,-0.07375 -0.165365,-0.165364 V 42.972211 c 0,-0.09161 0.07375,-0.165364 0.165365,-0.165364 z" />
    <path
       id="path1856"
       style="mix-blend-mode:normal;fill:url(#linearGradient1858);fill-opacity:1;stroke-width:1.134;stroke-linecap:square"
       d="m 7.833976,61.495996 h 71.832043 c 0.0916,0 0.16537,0.07375 0.16537,0.165364 v 16.640886 c 0,0.09161 -0.0738,0.165364 -0.16537,0.165364 H 7.833976 c -0.09161,0 -0.165365,-0.07375 -0.165365,-0.165364 V 61.66136 c 0,-0.09161 0.07375,-0.165364 0.165365,-0.165364 z" />
    <path
       id="path1860"
       style="mix-blend-mode:normal;fill:url(#linearGradient1870);fill-opacity:1;stroke-width:1.134;stroke-linecap:square"
       d="m 7.833976,80.185145 h 71.832043 c 0.0916,0 0.16537,0.07375 0.16537,0.165364 v 16.640886 c 0,0.09161 -0.0738,0.165364 -0.16537,0.165364 H 7.833976 c -0.09161,0 -0.165365,-0.07375 -0.165365,-0.165364 V 80.350509 c 0,-0.09161 0.07375,-0.165364 0.165365,-0.165364 z" />
    <path
       id="path1872"
       style="mix-blend-mode:normal;fill:url(#linearGradient1874);fill-opacity:1;stroke-width:1.134;stroke-linecap:square"
       d="m 7.833976,98.829951 h 71.832043 c 0.0916,0 0.16537,0.07375 0.16537,0.165364 V 115.6362 c 0,0.0916 -0.0738,0.16536 -0.16537,0.16536 H 7.833976 c -0.09161,0 -0.165365,-0.0737 -0.165365,-0.16536 V 98.995315 c 0,-0.09161 0.07375,-0.165364 0.165365,-0.165364 z" />
    <path
       id="path1880"
       style="mix-blend-mode:normal;fill:url(#linearGradient1882);fill-opacity:1;stroke-width:1.134;stroke-linecap:square"
       d="m 7.833976,117.5191 h 71.832043 c 0.0916,0 0.16537,0.0738 0.16537,0.16536 v 16.64089 c 0,0.0916 -0.0738,0.16536 -0.16537,0.16536 H 7.833976 c -0.09161,0 -0.165365,-0.0737 -0.165365,-0.16536 v -16.64089 c 0,-0.0916 0.07375,-0.16536 0.165365,-0.16536 z" />
    <path
       id="path1884"
       style="opacity:0.997;fill:#000000;fill-opacity:0.83871;stroke-width:1.24479;stroke-linecap:square;filter:url(#filter1765)"
       d="M 6.8838287,172.70617 H 80.616169 v 18.64481 H 6.8838287 Z"
       sodipodi:nodetypes="ccccc" />
    <path
       id="path932"
       style="mix-blend-mode:normal;fill:url(#linearGradient942);fill-opacity:1;stroke-width:1.134;stroke-linecap:square"
       d="m 7.833976,136.20825 h 71.832043 c 0.0916,0 0.16537,0.0738 0.16537,0.16536 v 16.64089 c 0,0.0916 -0.0738,0.16536 -0.16537,0.16536 H 7.833976 c -0.09161,0 -0.165365,-0.0737 -0.165365,-0.16536 v -16.64089 c 0,-0.0916 0.07375,-0.16536 0.165365,-0.16536 z" />
    <path
       id="path944"
       style="mix-blend-mode:normal;fill:url(#linearGradient946);fill-opacity:1;stroke-width:1.134;stroke-linecap:square"
       d="m 7.833976,154.8974 h 71.832043 c 0.0916,0 0.16537,0.0738 0.16537,0.16536 v 16.64089 c 0,0.0916 -0.0738,0.16536 -0.16537,0.16536 H 7.833976 c -0.09161,0 -0.165365,-0.0737 -0.165365,-0.16536 v -16.64089 c 0,-0.0916 0.07375,-0.16536 0.165365,-0.16536 z" />
    <path
       id="path948"
       style="mix-blend-mode:normal;fill:url(#linearGradient950);fill-opacity:1;stroke-width:1.134;stroke-linecap:square"
       d="m 7.833976,173.54277 h 71.832043 c 0.0916,0 0.16537,0.0738 0.16537,0.16536 v 16.64089 c 0,0.0916 -0.0738,0.16536 -0.16537,0.16536 H 7.833976 c -0.09161,0 -0.165365,-0.0737 -0.165365,-0.16536 v -16.64089 c 0,-0.0916 0.07375,-0.16536 0.165365,-0.16536 z" />
    <text
       xml:space="preserve"
       style="font-size:7.05556px;line-height:1.25;font-family:'Cambria Math';-inkscape-font-specification:'Cambria Math';stroke-width:0.264583"
       x="20.788424"
       y="34.31744"
       id="text954"><tspan
         sodipodi:role="line"
         id="tspan952"
         x="20.788424"
         y="34.31744"
         style="font-size:7.05556px;fill:#ffffff;fill-opacity:1;stroke-width:0.264583">Kopiec binarny</tspan></text>
    <text
       xml:space="preserve"
       style="font-size:7.05556px;line-height:1.25;font-family:'Cambria Math';-inkscape-font-specification:'Cambria Math';stroke-width:0.264583"
       x="25.179199"
       y="91.022232"
       id="text958"><tspan
         sodipodi:role="line"
         id="tspan956"
         x="25.179199"
         y="91.022232"
         style="font-size:7.05556px;fill:#ffffff;fill-opacity:1;stroke-width:0.264583">Drzewo AVL</tspan></text>
    <text
       xml:space="preserve"
       style="font-size:7.05556px;line-height:1.25;font-family:'Cambria Math';-inkscape-font-specification:'Cambria Math';stroke-width:0.264583"
       x="29.094555"
       y="147.13145"
       id="text962"><tspan
         sodipodi:role="line"
         id="tspan960"
         x="29.094555"
         y="147.13145"
         style="font-size:7.05556px;fill:#ffffff;fill-opacity:1;stroke-width:0.264583">B-drzewo</tspan></text>
  </g>
</svg>
